<mxfile host="app.diagrams.net" agent="Mozilla/5.0 (Macintosh; Intel Mac OS X 10_15_7) AppleWebKit/537.36 (KHTML, like Gecko) Chrome/129.0.0.0 Safari/537.36" version="24.7.16">
  <diagram name="Page-1" id="jdNIPbbTw06zvPXnOV1P">
    <mxGraphModel dx="1030" dy="785" grid="1" gridSize="10" guides="1" tooltips="1" connect="1" arrows="1" fold="1" page="1" pageScale="1" pageWidth="850" pageHeight="1100" math="0" shadow="0">
      <root>
        <mxCell id="0" />
        <mxCell id="1" parent="0" />
        <mxCell id="Dn27e5XYjHigMy8MOaiu-1" value="&lt;span data-lucid-content=&quot;{&amp;quot;t&amp;quot;:&amp;quot;\nTourist places\n\nAssumptions\nA tourist place is visied when one or more tourist visits that place. We keep track of a visit by the ticket_id and each ticket_id is uniquie for a tourist place. \nThere can be a ticket_id which allows you to visit multiple tourist_places, but is valid at a tourist_place only once.(aka the combination of ticket_id and tourist_place_id should be unique).\n\nThere can be multiple visits to a tourist place by the same tourist, but its counted based on the date. If a tourist visits same place twice in a day, it&#39;s counted as two visits (since a ticket needs to be purchased on every visit).\n\nRelationships\nMany tourists vists a tourist place\nA tourist place can be visted by many tourists either on same date or at different dates&amp;quot;,&amp;quot;m&amp;quot;:[{&amp;quot;s&amp;quot;:0,&amp;quot;n&amp;quot;:&amp;quot;a&amp;quot;,&amp;quot;v&amp;quot;:&amp;quot;left&amp;quot;},{&amp;quot;s&amp;quot;:0,&amp;quot;n&amp;quot;:&amp;quot;b&amp;quot;,&amp;quot;v&amp;quot;:true,&amp;quot;e&amp;quot;:15},{&amp;quot;s&amp;quot;:0,&amp;quot;n&amp;quot;:&amp;quot;fc&amp;quot;,&amp;quot;v&amp;quot;:&amp;quot;Bold Oblique&amp;quot;,&amp;quot;e&amp;quot;:15},{&amp;quot;s&amp;quot;:0,&amp;quot;n&amp;quot;:&amp;quot;fid&amp;quot;,&amp;quot;v&amp;quot;:7,&amp;quot;e&amp;quot;:15},{&amp;quot;s&amp;quot;:0,&amp;quot;n&amp;quot;:&amp;quot;i&amp;quot;,&amp;quot;v&amp;quot;:true,&amp;quot;e&amp;quot;:15},{&amp;quot;s&amp;quot;:0,&amp;quot;n&amp;quot;:&amp;quot;u&amp;quot;,&amp;quot;v&amp;quot;:true,&amp;quot;e&amp;quot;:15},{&amp;quot;s&amp;quot;:0,&amp;quot;n&amp;quot;:&amp;quot;fsp&amp;quot;,&amp;quot;v&amp;quot;:&amp;quot;ss_presetShapeStyle4_textStyle&amp;quot;,&amp;quot;e&amp;quot;:758},{&amp;quot;s&amp;quot;:0,&amp;quot;n&amp;quot;:&amp;quot;fsp2&amp;quot;,&amp;quot;v&amp;quot;:&amp;quot;ss_presetShapeStyle4_textStyle&amp;quot;,&amp;quot;e&amp;quot;:758},{&amp;quot;s&amp;quot;:16,&amp;quot;n&amp;quot;:&amp;quot;a&amp;quot;,&amp;quot;v&amp;quot;:&amp;quot;left&amp;quot;},{&amp;quot;s&amp;quot;:17,&amp;quot;n&amp;quot;:&amp;quot;a&amp;quot;,&amp;quot;v&amp;quot;:&amp;quot;left&amp;quot;},{&amp;quot;s&amp;quot;:17,&amp;quot;n&amp;quot;:&amp;quot;b&amp;quot;,&amp;quot;v&amp;quot;:true,&amp;quot;e&amp;quot;:28},{&amp;quot;s&amp;quot;:17,&amp;quot;n&amp;quot;:&amp;quot;fc&amp;quot;,&amp;quot;v&amp;quot;:&amp;quot;Bold&amp;quot;,&amp;quot;e&amp;quot;:28},{&amp;quot;s&amp;quot;:17,&amp;quot;n&amp;quot;:&amp;quot;fid&amp;quot;,&amp;quot;v&amp;quot;:5,&amp;quot;e&amp;quot;:28},{&amp;quot;s&amp;quot;:29,&amp;quot;n&amp;quot;:&amp;quot;a&amp;quot;,&amp;quot;v&amp;quot;:&amp;quot;left&amp;quot;},{&amp;quot;s&amp;quot;:193,&amp;quot;n&amp;quot;:&amp;quot;a&amp;quot;,&amp;quot;v&amp;quot;:&amp;quot;left&amp;quot;},{&amp;quot;s&amp;quot;:385,&amp;quot;n&amp;quot;:&amp;quot;a&amp;quot;,&amp;quot;v&amp;quot;:&amp;quot;left&amp;quot;},{&amp;quot;s&amp;quot;:386,&amp;quot;n&amp;quot;:&amp;quot;a&amp;quot;,&amp;quot;v&amp;quot;:&amp;quot;left&amp;quot;},{&amp;quot;s&amp;quot;:619,&amp;quot;n&amp;quot;:&amp;quot;a&amp;quot;,&amp;quot;v&amp;quot;:&amp;quot;left&amp;quot;},{&amp;quot;s&amp;quot;:620,&amp;quot;n&amp;quot;:&amp;quot;a&amp;quot;,&amp;quot;v&amp;quot;:&amp;quot;left&amp;quot;},{&amp;quot;s&amp;quot;:620,&amp;quot;n&amp;quot;:&amp;quot;b&amp;quot;,&amp;quot;v&amp;quot;:true,&amp;quot;e&amp;quot;:634},{&amp;quot;s&amp;quot;:620,&amp;quot;n&amp;quot;:&amp;quot;fc&amp;quot;,&amp;quot;v&amp;quot;:&amp;quot;Bold&amp;quot;,&amp;quot;e&amp;quot;:634},{&amp;quot;s&amp;quot;:620,&amp;quot;n&amp;quot;:&amp;quot;fid&amp;quot;,&amp;quot;v&amp;quot;:5,&amp;quot;e&amp;quot;:634},{&amp;quot;s&amp;quot;:634,&amp;quot;n&amp;quot;:&amp;quot;a&amp;quot;,&amp;quot;v&amp;quot;:&amp;quot;left&amp;quot;},{&amp;quot;s&amp;quot;:670,&amp;quot;n&amp;quot;:&amp;quot;a&amp;quot;,&amp;quot;v&amp;quot;:&amp;quot;left&amp;quot;},{&amp;quot;s&amp;quot;:1,&amp;quot;n&amp;quot;:&amp;quot;a&amp;quot;,&amp;quot;v&amp;quot;:&amp;quot;left&amp;quot;}]}&quot; data-lucid-type=&quot;application/vnd.lucid.text&quot;&gt;&lt;span style=&quot;font-weight: bold; color: rgb(40, 44, 51); font-style: italic; text-decoration-line: underline;&quot;&gt;&lt;br&gt;&lt;/span&gt;&lt;span style=&quot;font-weight: bold; color: rgb(40, 44, 51); font-style: italic; text-decoration-line: underline;&quot;&gt;Tourist places&lt;/span&gt;&lt;span style=&quot;color:#282c33;&quot;&gt;&lt;br&gt;&lt;/span&gt;&lt;span style=&quot;color:#282c33;&quot;&gt;&lt;br&gt;&lt;/span&gt;&lt;span style=&quot;font-weight:bold;color:#282c33;&quot;&gt;Assumptions&lt;/span&gt;&lt;span style=&quot;color:#282c33;&quot;&gt;&lt;br&gt;&lt;/span&gt;&lt;span style=&quot;color:#282c33;&quot;&gt;A tourist place is visied when one or more tourist visits that place. We keep track of a visit by the ticket_id and each ticket_id is uniquie for a tourist place. &lt;br&gt;&lt;/span&gt;&lt;span style=&quot;color:#282c33;&quot;&gt;There can be a ticket_id which allows you to visit multiple tourist_places, but is valid at a tourist_place only once.(aka the combination of ticket_id and tourist_place_id should be unique).&lt;br&gt;&lt;/span&gt;&lt;span style=&quot;color:#282c33;&quot;&gt;&lt;br&gt;&lt;/span&gt;&lt;span style=&quot;color:#282c33;&quot;&gt;There can be multiple visits to a tourist place by the same tourist, but its counted based on the date. If a tourist visits same place twice in a day, it&#39;s counted as two visits (since a ticket needs to be purchased on every visit).&lt;br&gt;&lt;/span&gt;&lt;span style=&quot;color:#282c33;&quot;&gt;&lt;br&gt;&lt;/span&gt;&lt;span style=&quot;font-weight:bold;color:#282c33;&quot;&gt;Relationships&lt;br&gt;&lt;/span&gt;&lt;span style=&quot;color:#282c33;&quot;&gt;Many tourists vists a tourist place&lt;br&gt;&lt;/span&gt;&lt;span style=&quot;color:#282c33;&quot;&gt;A tourist place can be visted by many tourists either on same date or at different dates&lt;/span&gt;&lt;/span&gt;" style="shape=note;size=20;whiteSpace=wrap;html=1;align=left;verticalAlign=top;fillColor=#dae8fc;strokeColor=#6c8ebf;" vertex="1" parent="1">
          <mxGeometry x="130" y="40" width="590" height="230" as="geometry" />
        </mxCell>
      </root>
    </mxGraphModel>
  </diagram>
</mxfile>
